<svg width="215" height="18" viewBox="0 0 215 18" fill="none" xmlns="http://www.w3.org/2000/svg">
<path d="M201.5 5L207.5 11L213.5 5" stroke="white" stroke-width="2" stroke-linecap="round" stroke-linejoin="round"/>
<path d="M9.77769 5.63956C9.74076 5.26716 9.58226 4.97786 9.30219 4.77166C9.02213 4.56546 8.64204 4.46236 8.16192 4.46236C7.83569 4.46236 7.56024 4.50852 7.33557 4.60085C7.1109 4.6901 6.93856 4.81475 6.81853 4.97479C6.70158 5.13482 6.6431 5.31641 6.6431 5.51953C6.63695 5.6888 6.67234 5.83653 6.74928 5.96271C6.8293 6.0889 6.93855 6.19815 7.07705 6.29048C7.21554 6.37973 7.37558 6.45821 7.55716 6.52592C7.73874 6.59055 7.93264 6.64595 8.13884 6.69212L8.98827 6.89524C9.40068 6.98757 9.77923 7.11068 10.1239 7.26456C10.4686 7.41844 10.7672 7.60772 11.0195 7.83239C11.2719 8.05705 11.4673 8.32173 11.6058 8.62642C11.7474 8.93111 11.8197 9.28042 11.8228 9.67436C11.8197 10.253 11.672 10.7546 11.3796 11.1793C11.0903 11.601 10.6717 11.9287 10.1239 12.1626C9.57918 12.3935 8.9221 12.5089 8.15269 12.5089C7.38943 12.5089 6.72466 12.3919 6.15837 12.158C5.59516 11.9241 5.15506 11.5779 4.83806 11.1193C4.52414 10.6577 4.35948 10.0868 4.34409 9.4066H6.2784C6.29994 9.7236 6.39073 9.98828 6.55077 10.2006C6.71389 10.4099 6.93086 10.5684 7.20169 10.6761C7.47561 10.7808 7.78491 10.8331 8.12961 10.8331C8.46815 10.8331 8.76206 10.7839 9.01135 10.6854C9.26372 10.5869 9.45915 10.4499 9.59765 10.2745C9.73614 10.0991 9.80539 9.89749 9.80539 9.66974C9.80539 9.45739 9.7423 9.27888 9.61611 9.13423C9.49301 8.98958 9.31142 8.86648 9.07137 8.76491C8.83439 8.66335 8.54355 8.57102 8.19885 8.48793L7.16938 8.2294C6.37227 8.03551 5.74289 7.73236 5.28124 7.31996C4.81959 6.90755 4.59031 6.35204 4.59338 5.65341C4.59031 5.08097 4.74265 4.58085 5.05042 4.15305C5.36126 3.72526 5.78751 3.39134 6.32918 3.15128C6.87085 2.91122 7.48638 2.79119 8.17577 2.79119C8.87748 2.79119 9.48993 2.91122 10.0131 3.15128C10.5394 3.39134 10.9487 3.72526 11.2411 4.15305C11.5335 4.58085 11.6843 5.07635 11.6935 5.63956H9.77769ZM15.9663 2.92045V12.375H13.9673V2.92045H15.9663ZM18.0508 4.56854V2.92045H25.8157V4.56854H22.9212V12.375H20.9453V4.56854H18.0508ZM27.8945 12.375V2.92045H34.2652V4.56854H29.8934V6.82138H33.9375V8.46946H29.8934V10.7269H34.2837V12.375H27.8945ZM40.4632 12.375V2.92045H42.4622V10.7269H46.5154V12.375H40.4632ZM50.51 12.375H48.368L51.6318 2.92045H54.2078L57.4671 12.375H55.325L52.9568 5.08097H52.8829L50.51 12.375ZM50.3762 8.65874H55.4358V10.2191H50.3762V8.65874ZM67.3131 2.92045V12.375H65.5865L61.4732 6.42436H61.404V12.375H59.405V2.92045H61.1593L65.2403 8.86648H65.3234V2.92045H67.3131ZM76.0338 5.97656C75.9691 5.75189 75.8784 5.55339 75.7614 5.38104C75.6445 5.20561 75.5013 5.05788 75.3321 4.93786C75.1659 4.81475 74.9751 4.72088 74.7596 4.65625C74.5473 4.59162 74.3118 4.5593 74.0533 4.5593C73.5701 4.5593 73.1454 4.67933 72.7792 4.91939C72.416 5.15945 72.1329 5.50876 71.9297 5.96733C71.7266 6.42282 71.625 6.97988 71.625 7.63849C71.625 8.29711 71.7251 8.85724 71.9251 9.31889C72.1252 9.78054 72.4083 10.1329 72.7745 10.3761C73.1408 10.6161 73.5732 10.7362 74.0718 10.7362C74.5242 10.7362 74.9104 10.6561 75.2305 10.4961C75.5537 10.333 75.7999 10.1037 75.9692 9.80824C76.1415 9.51278 76.2277 9.16347 76.2277 8.7603L76.6339 8.82031H74.1964V7.31534H78.1527V8.50639C78.1527 9.33736 77.9773 10.0514 77.6265 10.6484C77.2756 11.2424 76.7924 11.701 76.1769 12.0241C75.5614 12.3442 74.8566 12.5043 74.0625 12.5043C73.1762 12.5043 72.3975 12.3088 71.7266 11.918C71.0557 11.524 70.5325 10.9654 70.157 10.2422C69.7846 9.51586 69.5984 8.65412 69.5984 7.65696C69.5984 6.89062 69.7092 6.20739 69.9308 5.60724C70.1555 5.00402 70.4694 4.49313 70.8726 4.07457C71.2757 3.65601 71.7451 3.33748 72.2806 3.11896C72.8161 2.90045 73.3962 2.79119 74.021 2.79119C74.5565 2.79119 75.0551 2.86967 75.5167 3.02663C75.9784 3.18052 76.3877 3.39903 76.7447 3.68217C77.1048 3.96532 77.3987 4.30232 77.6265 4.69318C77.8542 5.08097 78.0004 5.50876 78.065 5.97656H76.0338ZM86.2941 2.92045H88.293V9.06037C88.293 9.74976 88.1284 10.353 87.7991 10.87C87.4728 11.3871 87.0158 11.7902 86.428 12.0795C85.8401 12.3658 85.1554 12.5089 84.3736 12.5089C83.5888 12.5089 82.9025 12.3658 82.3147 12.0795C81.7269 11.7902 81.2698 11.3871 80.9436 10.87C80.6174 10.353 80.4542 9.74976 80.4542 9.06037V2.92045H82.4532V8.88956C82.4532 9.24964 82.5317 9.56972 82.6886 9.84979C82.8487 10.1299 83.0733 10.3499 83.3626 10.5099C83.6519 10.67 83.9889 10.75 84.3736 10.75C84.7614 10.75 85.0984 10.67 85.3846 10.5099C85.6739 10.3499 85.8971 10.1299 86.054 9.84979C86.2141 9.56972 86.2941 9.24964 86.2941 8.88956V2.92045ZM92.3673 12.375H90.2252L93.4891 2.92045H96.0651L99.3243 12.375H97.1823L94.814 5.08097H94.7401L92.3673 12.375ZM92.2334 8.65874H97.293V10.2191H92.2334V8.65874ZM107.087 5.97656C107.022 5.75189 106.932 5.55339 106.815 5.38104C106.698 5.20561 106.555 5.05788 106.385 4.93786C106.219 4.81475 106.028 4.72088 105.813 4.65625C105.601 4.59162 105.365 4.5593 105.107 4.5593C104.623 4.5593 104.199 4.67933 103.832 4.91939C103.469 5.15945 103.186 5.50876 102.983 5.96733C102.78 6.42282 102.678 6.97988 102.678 7.63849C102.678 8.29711 102.778 8.85724 102.978 9.31889C103.178 9.78054 103.462 10.1329 103.828 10.3761C104.194 10.6161 104.627 10.7362 105.125 10.7362C105.578 10.7362 105.964 10.6561 106.284 10.4961C106.607 10.333 106.853 10.1037 107.022 9.80824C107.195 9.51278 107.281 9.16347 107.281 8.7603L107.687 8.82031H105.25V7.31534H109.206V8.50639C109.206 9.33736 109.031 10.0514 108.68 10.6484C108.329 11.2424 107.846 11.701 107.23 12.0241C106.615 12.3442 105.91 12.5043 105.116 12.5043C104.23 12.5043 103.451 12.3088 102.78 11.918C102.109 11.524 101.586 10.9654 101.21 10.2422C100.838 9.51586 100.652 8.65412 100.652 7.65696C100.652 6.89062 100.763 6.20739 100.984 5.60724C101.209 5.00402 101.523 4.49313 101.926 4.07457C102.329 3.65601 102.798 3.33748 103.334 3.11896C103.869 2.90045 104.45 2.79119 105.074 2.79119C105.61 2.79119 106.108 2.86967 106.57 3.02663C107.032 3.18052 107.441 3.39903 107.798 3.68217C108.158 3.96532 108.452 4.30232 108.68 4.69318C108.908 5.08097 109.054 5.50876 109.118 5.97656H107.087ZM111.508 12.375V2.92045H117.878V4.56854H113.507V6.82138H117.551V8.46946H113.507V10.7269H117.897V12.375H111.508ZM121.38 11.2763C121.075 11.2763 120.814 11.1686 120.595 10.9531C120.38 10.7377 120.272 10.4761 120.272 10.1683C120.272 9.86671 120.38 9.60819 120.595 9.39276C120.814 9.17732 121.075 9.0696 121.38 9.0696C121.676 9.0696 121.934 9.17732 122.156 9.39276C122.377 9.60819 122.488 9.86671 122.488 10.1683C122.488 10.3714 122.436 10.5576 122.331 10.7269C122.23 10.8931 122.096 11.027 121.929 11.1286C121.763 11.227 121.58 11.2763 121.38 11.2763ZM121.38 6.63672C121.075 6.63672 120.814 6.529 120.595 6.31357C120.38 6.09813 120.272 5.83653 120.272 5.52876C120.272 5.22715 120.38 4.97017 120.595 4.75781C120.814 4.54238 121.075 4.43466 121.38 4.43466C121.676 4.43466 121.934 4.54238 122.156 4.75781C122.377 4.97017 122.488 5.22715 122.488 5.52876C122.488 5.73497 122.436 5.9227 122.331 6.09197C122.23 6.25817 122.096 6.39051 121.929 6.48899C121.763 6.58748 121.58 6.63672 121.38 6.63672ZM128.748 12.375V2.92045H135.119V4.56854H130.747V6.82138H134.791V8.46946H130.747V10.7269H135.138V12.375H128.748ZM145.416 2.92045V12.375H143.69L139.577 6.42436H139.507V12.375H137.508V2.92045H139.263L143.344 8.86648H143.427V2.92045H145.416ZM154.137 5.97656C154.072 5.75189 153.982 5.55339 153.865 5.38104C153.748 5.20561 153.605 5.05788 153.435 4.93786C153.269 4.81475 153.078 4.72088 152.863 4.65625C152.651 4.59162 152.415 4.5593 152.157 4.5593C151.673 4.5593 151.249 4.67933 150.882 4.91939C150.519 5.15945 150.236 5.50876 150.033 5.96733C149.83 6.42282 149.728 6.97988 149.728 7.63849C149.728 8.29711 149.828 8.85724 150.028 9.31889C150.228 9.78054 150.512 10.1329 150.878 10.3761C151.244 10.6161 151.677 10.7362 152.175 10.7362C152.628 10.7362 153.014 10.6561 153.334 10.4961C153.657 10.333 153.903 10.1037 154.072 9.80824C154.245 9.51278 154.331 9.16347 154.331 8.7603L154.737 8.82031H152.3V7.31534H156.256V8.50639C156.256 9.33736 156.081 10.0514 155.73 10.6484C155.379 11.2424 154.896 11.701 154.28 12.0241C153.665 12.3442 152.96 12.5043 152.166 12.5043C151.28 12.5043 150.501 12.3088 149.83 11.918C149.159 11.524 148.636 10.9654 148.26 10.2422C147.888 9.51586 147.702 8.65412 147.702 7.65696C147.702 6.89062 147.813 6.20739 148.034 5.60724C148.259 5.00402 148.573 4.49313 148.976 4.07457C149.379 3.65601 149.848 3.33748 150.384 3.11896C150.919 2.90045 151.5 2.79119 152.124 2.79119C152.66 2.79119 153.158 2.86967 153.62 3.02663C154.082 3.18052 154.491 3.39903 154.848 3.68217C155.208 3.96532 155.502 4.30232 155.73 4.69318C155.958 5.08097 156.104 5.50876 156.168 5.97656H154.137ZM158.558 12.375V2.92045H160.557V10.7269H164.61V12.375H158.558ZM168.732 2.92045V12.375H166.734V2.92045H168.732ZM176.306 5.63956C176.269 5.26716 176.111 4.97786 175.831 4.77166C175.55 4.56546 175.17 4.46236 174.69 4.46236C174.364 4.46236 174.089 4.50852 173.864 4.60085C173.639 4.6901 173.467 4.81475 173.347 4.97479C173.23 5.13482 173.171 5.31641 173.171 5.51953C173.165 5.6888 173.201 5.83653 173.278 5.96271C173.358 6.0889 173.467 6.19815 173.605 6.29048C173.744 6.37973 173.904 6.45821 174.085 6.52592C174.267 6.59055 174.461 6.64595 174.667 6.69212L175.517 6.89524C175.929 6.98757 176.308 7.11068 176.652 7.26456C176.997 7.41844 177.295 7.60772 177.548 7.83239C177.8 8.05705 177.996 8.32173 178.134 8.62642C178.276 8.93111 178.348 9.28042 178.351 9.67436C178.348 10.253 178.2 10.7546 177.908 11.1793C177.619 11.601 177.2 11.9287 176.652 12.1626C176.108 12.3935 175.45 12.5089 174.681 12.5089C173.918 12.5089 173.253 12.3919 172.687 12.158C172.123 11.9241 171.683 11.5779 171.366 11.1193C171.052 10.6577 170.888 10.0868 170.872 9.4066H172.807C172.828 9.7236 172.919 9.98828 173.079 10.2006C173.242 10.4099 173.459 10.5684 173.73 10.6761C174.004 10.7808 174.313 10.8331 174.658 10.8331C174.996 10.8331 175.29 10.7839 175.54 10.6854C175.792 10.5869 175.987 10.4499 176.126 10.2745C176.264 10.0991 176.334 9.89749 176.334 9.66974C176.334 9.45739 176.271 9.27888 176.144 9.13423C176.021 8.98958 175.84 8.86648 175.6 8.76491C175.363 8.66335 175.072 8.57102 174.727 8.48793L173.698 8.2294C172.901 8.03551 172.271 7.73236 171.81 7.31996C171.348 6.90755 171.119 6.35204 171.122 5.65341C171.119 5.08097 171.271 4.58085 171.579 4.15305C171.89 3.72526 172.316 3.39134 172.858 3.15128C173.399 2.91122 174.015 2.79119 174.704 2.79119C175.406 2.79119 176.018 2.91122 176.541 3.15128C177.068 3.39134 177.477 3.72526 177.769 4.15305C178.062 4.58085 178.213 5.07635 178.222 5.63956H176.306ZM180.496 12.375V2.92045H182.495V6.82138H186.552V2.92045H188.547V12.375H186.552V8.46946H182.495V12.375H180.496Z" fill="white"/>
</svg>
