<svg width="397" height="77" viewBox="0 0 397 77" fill="none" xmlns="http://www.w3.org/2000/svg">
<g filter="url(#filter0_d_1_2482)">
<rect x="0.5" y="0.84668" width="192" height="68.5781" rx="16" fill="white"/>
<rect x="1.5" y="1.84668" width="190" height="66.5781" rx="15" stroke="#E5E5E5" stroke-width="2"/>
</g>
<g clip-path="url(#clip0_1_2482)">
<path d="M50.41 32.4143C50.4398 30.1099 51.6495 27.9812 53.6155 26.7742C52.3696 24.9973 50.3576 23.911 48.1866 23.8432C45.9024 23.6038 43.688 25.2082 42.524 25.2082C41.3375 25.2082 39.5455 23.867 37.6156 23.9066C35.0765 23.9886 32.7667 25.3953 31.5313 27.6122C28.9006 32.1607 30.8629 38.8455 33.3829 42.5221C34.6437 44.3224 36.1172 46.3335 38.0453 46.2622C39.932 46.1841 40.6367 45.0607 42.9141 45.0607C45.1704 45.0607 45.8316 46.2622 47.7988 46.2169C49.8234 46.1841 51.0989 44.4085 52.3155 42.5911C53.2214 41.3083 53.9184 39.8905 54.3809 38.3902C51.9763 37.3746 50.4129 35.0217 50.41 32.4143Z" fill="#4B4B4B"/>
<path d="M46.6943 21.4253C47.7982 20.1019 48.3421 18.4009 48.2104 16.6836C46.5239 16.8605 44.966 17.6654 43.8473 18.938C42.7425 20.1936 42.1828 21.8362 42.2915 23.5041C44.0006 23.5217 45.6233 22.7555 46.6943 21.4253Z" fill="#4B4B4B"/>
</g>
<path d="M77.6312 26.8457H74.7953V18.8457H77.6547C78.4594 18.8457 79.1521 19.0059 79.7328 19.3262C80.3135 19.6439 80.7601 20.1009 81.0726 20.6973C81.3877 21.2936 81.5453 22.0072 81.5453 22.8379C81.5453 23.6712 81.3877 24.3874 81.0726 24.9863C80.7601 25.5853 80.3109 26.0449 79.725 26.3652C79.1416 26.6855 78.4437 26.8457 77.6312 26.8457ZM76.4867 25.3965H77.5609C78.0609 25.3965 78.4815 25.3079 78.8226 25.1309C79.1664 24.9512 79.4242 24.6738 79.5961 24.2988C79.7705 23.9212 79.8578 23.4342 79.8578 22.8379C79.8578 22.2467 79.7705 21.7637 79.5961 21.3887C79.4242 21.0137 79.1677 20.7376 78.8265 20.5605C78.4854 20.3835 78.0648 20.2949 77.5648 20.2949H76.4867V25.3965ZM85.4779 26.9629C84.8711 26.9629 84.3464 26.834 83.9037 26.5762C83.4636 26.3158 83.1237 25.9538 82.8842 25.4902C82.6446 25.0241 82.5248 24.4837 82.5248 23.8691C82.5248 23.2493 82.6446 22.7077 82.8842 22.2441C83.1237 21.778 83.4636 21.416 83.9037 21.1582C84.3464 20.8978 84.8711 20.7676 85.4779 20.7676C86.0847 20.7676 86.6081 20.8978 87.0482 21.1582C87.4909 21.416 87.8321 21.778 88.0717 22.2441C88.3112 22.7077 88.431 23.2493 88.431 23.8691C88.431 24.4837 88.3112 25.0241 88.0717 25.4902C87.8321 25.9538 87.4909 26.3158 87.0482 26.5762C86.6081 26.834 86.0847 26.9629 85.4779 26.9629ZM85.4857 25.6738C85.7618 25.6738 85.9922 25.5957 86.1771 25.4395C86.362 25.2806 86.5013 25.0645 86.5951 24.791C86.6914 24.5176 86.7396 24.2064 86.7396 23.8574C86.7396 23.5085 86.6914 23.1973 86.5951 22.9238C86.5013 22.6504 86.362 22.4342 86.1771 22.2754C85.9922 22.1165 85.7618 22.0371 85.4857 22.0371C85.2071 22.0371 84.9727 22.1165 84.7826 22.2754C84.5951 22.4342 84.4532 22.6504 84.3568 22.9238C84.2631 23.1973 84.2162 23.5085 84.2162 23.8574C84.2162 24.2064 84.2631 24.5176 84.3568 24.791C84.4532 25.0645 84.5951 25.2806 84.7826 25.4395C84.9727 25.5957 85.2071 25.6738 85.4857 25.6738ZM90.5463 26.8457L88.9135 20.8457H90.597L91.5267 24.877H91.5814L92.5502 20.8457H94.2025L95.1869 24.8535H95.2377L96.1517 20.8457H97.8314L96.2025 26.8457H94.4408L93.4095 23.0723H93.3353L92.3041 26.8457H90.5463ZM100.383 23.377V26.8457H98.7191V20.8457H100.305V21.9043H100.375C100.508 21.5553 100.731 21.2793 101.043 21.0762C101.356 20.8704 101.735 20.7676 102.18 20.7676C102.597 20.7676 102.96 20.8587 103.27 21.041C103.58 21.2233 103.821 21.4837 103.993 21.8223C104.164 22.1582 104.25 22.5592 104.25 23.0254V26.8457H102.586V23.3223C102.589 22.9551 102.495 22.6686 102.305 22.4629C102.115 22.2546 101.853 22.1504 101.52 22.1504C101.296 22.1504 101.098 22.1986 100.926 22.2949C100.757 22.3913 100.624 22.5319 100.528 22.7168C100.434 22.8991 100.386 23.1191 100.383 23.377ZM107.226 18.8457V26.8457H105.562V18.8457H107.226ZM111.27 26.9629C110.663 26.9629 110.138 26.834 109.696 26.5762C109.256 26.3158 108.916 25.9538 108.676 25.4902C108.437 25.0241 108.317 24.4837 108.317 23.8691C108.317 23.2493 108.437 22.7077 108.676 22.2441C108.916 21.778 109.256 21.416 109.696 21.1582C110.138 20.8978 110.663 20.7676 111.27 20.7676C111.877 20.7676 112.4 20.8978 112.84 21.1582C113.283 21.416 113.624 21.778 113.864 22.2441C114.103 22.7077 114.223 23.2493 114.223 23.8691C114.223 24.4837 114.103 25.0241 113.864 25.4902C113.624 25.9538 113.283 26.3158 112.84 26.5762C112.4 26.834 111.877 26.9629 111.27 26.9629ZM111.278 25.6738C111.554 25.6738 111.784 25.5957 111.969 25.4395C112.154 25.2806 112.293 25.0645 112.387 24.791C112.483 24.5176 112.532 24.2064 112.532 23.8574C112.532 23.5085 112.483 23.1973 112.387 22.9238C112.293 22.6504 112.154 22.4342 111.969 22.2754C111.784 22.1165 111.554 22.0371 111.278 22.0371C110.999 22.0371 110.765 22.1165 110.575 22.2754C110.387 22.4342 110.245 22.6504 110.149 22.9238C110.055 23.1973 110.008 23.5085 110.008 23.8574C110.008 24.2064 110.055 24.5176 110.149 24.791C110.245 25.0645 110.387 25.2806 110.575 25.4395C110.765 25.5957 110.999 25.6738 111.278 25.6738ZM117.016 26.959C116.633 26.959 116.292 26.8926 115.993 26.7598C115.693 26.6243 115.456 26.4251 115.282 26.1621C115.11 25.8965 115.024 25.5658 115.024 25.1699C115.024 24.8366 115.085 24.5566 115.207 24.3301C115.33 24.1035 115.496 23.9212 115.707 23.7832C115.918 23.6452 116.158 23.541 116.426 23.4707C116.697 23.4004 116.981 23.3509 117.278 23.3223C117.627 23.2858 117.908 23.252 118.121 23.2207C118.335 23.1868 118.49 23.1374 118.586 23.0723C118.683 23.0072 118.731 22.9108 118.731 22.7832V22.7598C118.731 22.5124 118.653 22.321 118.496 22.1855C118.343 22.0501 118.124 21.9824 117.84 21.9824C117.541 21.9824 117.302 22.0488 117.125 22.1816C116.948 22.3118 116.831 22.4759 116.774 22.6738L115.235 22.5488C115.313 22.1842 115.467 21.8691 115.696 21.6035C115.925 21.3353 116.22 21.1296 116.582 20.9863C116.947 20.8405 117.369 20.7676 117.848 20.7676C118.181 20.7676 118.5 20.8066 118.805 20.8848C119.112 20.9629 119.384 21.084 119.621 21.248C119.861 21.4121 120.05 21.623 120.188 21.8809C120.326 22.1361 120.395 22.4421 120.395 22.7988V26.8457H118.817V26.0137H118.77C118.674 26.2012 118.545 26.3665 118.383 26.5098C118.222 26.6504 118.028 26.7611 117.801 26.8418C117.575 26.9199 117.313 26.959 117.016 26.959ZM117.493 25.8105C117.737 25.8105 117.953 25.7624 118.141 25.666C118.328 25.5671 118.476 25.4342 118.582 25.2676C118.689 25.1009 118.743 24.9121 118.743 24.7012V24.0645C118.69 24.0983 118.619 24.1296 118.528 24.1582C118.439 24.1842 118.339 24.209 118.227 24.2324C118.115 24.2533 118.003 24.2728 117.891 24.291C117.779 24.3066 117.677 24.321 117.586 24.334C117.391 24.3626 117.22 24.4082 117.075 24.4707C116.929 24.5332 116.815 24.6178 116.735 24.7246C116.654 24.8288 116.614 24.959 116.614 25.1152C116.614 25.3418 116.696 25.515 116.86 25.6348C117.026 25.752 117.237 25.8105 117.493 25.8105ZM123.897 26.9434C123.441 26.9434 123.028 26.8262 122.659 26.5918C122.291 26.3548 122 26.0072 121.784 25.5488C121.57 25.0879 121.463 24.5228 121.463 23.8535C121.463 23.166 121.574 22.5944 121.795 22.1387C122.017 21.6803 122.311 21.3379 122.678 21.1113C123.048 20.8822 123.453 20.7676 123.893 20.7676C124.229 20.7676 124.509 20.8249 124.733 20.9395C124.959 21.0514 125.142 21.1921 125.28 21.3613C125.42 21.528 125.527 21.6921 125.6 21.8535H125.651V18.8457H127.311V26.8457H125.67V25.8848H125.6C125.522 26.0514 125.411 26.2168 125.268 26.3809C125.127 26.5423 124.944 26.6764 124.717 26.7832C124.493 26.89 124.22 26.9434 123.897 26.9434ZM124.424 25.6191C124.692 25.6191 124.919 25.5462 125.104 25.4004C125.291 25.252 125.435 25.0449 125.534 24.7793C125.635 24.5137 125.686 24.2025 125.686 23.8457C125.686 23.4889 125.636 23.179 125.537 22.916C125.439 22.653 125.295 22.4499 125.108 22.3066C124.92 22.1634 124.692 22.0918 124.424 22.0918C124.151 22.0918 123.92 22.166 123.733 22.3145C123.545 22.4629 123.403 22.6686 123.307 22.9316C123.211 23.1947 123.162 23.4993 123.162 23.8457C123.162 24.1947 123.211 24.5033 123.307 24.7715C123.406 25.0371 123.548 25.2454 123.733 25.3965C123.92 25.5449 124.151 25.6191 124.424 25.6191ZM133.936 26.9629C133.329 26.9629 132.804 26.834 132.362 26.5762C131.922 26.3158 131.582 25.9538 131.342 25.4902C131.103 25.0241 130.983 24.4837 130.983 23.8691C130.983 23.2493 131.103 22.7077 131.342 22.2441C131.582 21.778 131.922 21.416 132.362 21.1582C132.804 20.8978 133.329 20.7676 133.936 20.7676C134.543 20.7676 135.066 20.8978 135.506 21.1582C135.949 21.416 136.29 21.778 136.53 22.2441C136.769 22.7077 136.889 23.2493 136.889 23.8691C136.889 24.4837 136.769 25.0241 136.53 25.4902C136.29 25.9538 135.949 26.3158 135.506 26.5762C135.066 26.834 134.543 26.9629 133.936 26.9629ZM133.944 25.6738C134.22 25.6738 134.45 25.5957 134.635 25.4395C134.82 25.2806 134.959 25.0645 135.053 24.791C135.149 24.5176 135.198 24.2064 135.198 23.8574C135.198 23.5085 135.149 23.1973 135.053 22.9238C134.959 22.6504 134.82 22.4342 134.635 22.2754C134.45 22.1165 134.22 22.0371 133.944 22.0371C133.665 22.0371 133.431 22.1165 133.241 22.2754C133.053 22.4342 132.911 22.6504 132.815 22.9238C132.721 23.1973 132.674 23.5085 132.674 23.8574C132.674 24.2064 132.721 24.5176 132.815 24.791C132.911 25.0645 133.053 25.2806 133.241 25.4395C133.431 25.5957 133.665 25.6738 133.944 25.6738ZM139.635 23.377V26.8457H137.971V20.8457H139.557V21.9043H139.627C139.76 21.5553 139.983 21.2793 140.295 21.0762C140.608 20.8704 140.987 20.7676 141.432 20.7676C141.849 20.7676 142.212 20.8587 142.522 21.041C142.832 21.2233 143.073 21.4837 143.245 21.8223C143.416 22.1582 143.502 22.5592 143.502 23.0254V26.8457H141.838V23.3223C141.841 22.9551 141.747 22.6686 141.557 22.4629C141.367 22.2546 141.105 22.1504 140.772 22.1504C140.548 22.1504 140.35 22.1986 140.178 22.2949C140.009 22.3913 139.876 22.5319 139.78 22.7168C139.686 22.8991 139.638 23.1191 139.635 23.377ZM150.551 20.8457V22.0957H146.938V20.8457H150.551ZM147.758 19.4082H149.422V25.002C149.422 25.1556 149.446 25.2754 149.493 25.3613C149.539 25.4447 149.605 25.5033 149.688 25.5371C149.774 25.571 149.873 25.5879 149.985 25.5879C150.063 25.5879 150.141 25.5814 150.219 25.5684C150.297 25.5527 150.357 25.541 150.399 25.5332L150.661 26.7715C150.577 26.7975 150.46 26.8275 150.309 26.8613C150.158 26.8978 149.974 26.9199 149.758 26.9277C149.357 26.9434 149.006 26.89 148.703 26.7676C148.404 26.6452 148.171 26.4551 148.004 26.1973C147.838 25.9395 147.756 25.6139 147.758 25.2207V19.4082ZM153.428 23.377V26.8457H151.764V18.8457H153.381V21.9043H153.452C153.587 21.5501 153.806 21.2728 154.108 21.0723C154.41 20.8691 154.789 20.7676 155.245 20.7676C155.661 20.7676 156.024 20.8587 156.334 21.041C156.647 21.2207 156.889 21.4798 157.061 21.8184C157.235 22.1543 157.321 22.5566 157.319 23.0254V26.8457H155.655V23.3223C155.657 22.9525 155.564 22.6647 155.373 22.459C155.186 22.2533 154.923 22.1504 154.584 22.1504C154.358 22.1504 154.157 22.1986 153.983 22.2949C153.811 22.3913 153.675 22.5319 153.577 22.7168C153.48 22.8991 153.431 23.1191 153.428 23.377ZM161.363 26.9629C160.745 26.9629 160.214 26.8379 159.769 26.5879C159.326 26.3353 158.985 25.9785 158.745 25.5176C158.506 25.054 158.386 24.5059 158.386 23.873C158.386 23.2559 158.506 22.7142 158.745 22.248C158.985 21.7819 159.322 21.4186 159.757 21.1582C160.195 20.8978 160.708 20.7676 161.296 20.7676C161.692 20.7676 162.061 20.8314 162.402 20.959C162.745 21.084 163.045 21.2728 163.3 21.5254C163.558 21.778 163.759 22.0957 163.902 22.4785C164.045 22.8587 164.117 23.304 164.117 23.8145V24.2715H159.05V23.2402H162.55C162.55 23.0007 162.498 22.7884 162.394 22.6035C162.29 22.4186 162.145 22.2741 161.96 22.1699C161.778 22.0632 161.566 22.0098 161.324 22.0098C161.071 22.0098 160.847 22.0684 160.652 22.1855C160.459 22.3001 160.308 22.4551 160.199 22.6504C160.089 22.8431 160.033 23.0579 160.031 23.2949V24.2754C160.031 24.5723 160.085 24.8288 160.195 25.0449C160.307 25.2611 160.464 25.4277 160.667 25.5449C160.87 25.6621 161.111 25.7207 161.39 25.7207C161.575 25.7207 161.744 25.6947 161.898 25.6426C162.051 25.5905 162.183 25.5124 162.292 25.4082C162.402 25.304 162.485 25.1764 162.542 25.0254L164.081 25.127C164.003 25.4967 163.843 25.8197 163.601 26.0957C163.361 26.3691 163.051 26.5827 162.671 26.7363C162.294 26.8874 161.857 26.9629 161.363 26.9629Z" fill="#4B4B4B"/>
<path d="M75.0758 48.0332H72.769L76.2839 37.8514H79.0581L82.568 48.0332H80.2612L77.7108 40.1781H77.6312L75.0758 48.0332ZM74.9317 44.0311H80.3805V45.7115H74.9317V44.0311ZM83.7537 50.8968V40.3968H85.8418V41.6795H85.9363C86.0291 41.474 86.1633 41.2652 86.339 41.0531C86.5179 40.8377 86.75 40.6587 87.035 40.5162C87.3233 40.3703 87.6813 40.2974 88.1089 40.2974C88.6657 40.2974 89.1794 40.4432 89.65 40.7349C90.1207 41.0233 90.4969 41.4591 90.7786 42.0424C91.0603 42.6225 91.2012 43.35 91.2012 44.225C91.2012 45.0768 91.0636 45.796 90.7885 46.3826C90.5168 46.966 90.1455 47.4084 89.6749 47.71C89.2076 48.0083 88.6839 48.1575 88.1039 48.1575C87.6929 48.1575 87.3432 48.0895 87.0549 47.9537C86.7698 47.8178 86.5362 47.6471 86.3539 47.4416C86.1716 47.2328 86.0324 47.0223 85.9363 46.8102H85.8716V50.8968H83.7537ZM85.8269 44.215C85.8269 44.6691 85.8899 45.0652 86.0158 45.4032C86.1418 45.7413 86.3241 46.0048 86.5627 46.1937C86.8013 46.3793 87.0913 46.4721 87.4327 46.4721C87.7774 46.4721 88.0691 46.3777 88.3077 46.1887C88.5464 45.9965 88.727 45.7314 88.8496 45.3933C88.9756 45.0519 89.0385 44.6592 89.0385 44.215C89.0385 43.7742 88.9772 43.3864 88.8546 43.0517C88.732 42.7169 88.5513 42.4551 88.3127 42.2662C88.0741 42.0772 87.7807 41.9828 87.4327 41.9828C87.088 41.9828 86.7964 42.0739 86.5577 42.2562C86.3224 42.4385 86.1418 42.697 86.0158 43.0318C85.8899 43.3665 85.8269 43.7609 85.8269 44.215ZM92.6131 50.8968V40.3968H94.7012V41.6795H94.7956C94.8884 41.474 95.0227 41.2652 95.1983 41.0531C95.3773 40.8377 95.6093 40.6587 95.8944 40.5162C96.1827 40.3703 96.5407 40.2974 96.9682 40.2974C97.525 40.2974 98.0388 40.4432 98.5094 40.7349C98.9801 41.0233 99.3562 41.4591 99.638 42.0424C99.9197 42.6225 100.061 43.35 100.061 44.225C100.061 45.0768 99.923 45.796 99.6479 46.3826C99.3761 46.966 99.0049 47.4084 98.5343 47.71C98.067 48.0083 97.5433 48.1575 96.9633 48.1575C96.5523 48.1575 96.2026 48.0895 95.9143 47.9537C95.6292 47.8178 95.3955 47.6471 95.2133 47.4416C95.031 47.2328 94.8918 47.0223 94.7956 46.8102H94.731V50.8968H92.6131ZM94.6863 44.215C94.6863 44.6691 94.7492 45.0652 94.8752 45.4032C95.0011 45.7413 95.1834 46.0048 95.4221 46.1937C95.6607 46.3793 95.9507 46.4721 96.2921 46.4721C96.6368 46.4721 96.9285 46.3777 97.1671 46.1887C97.4057 45.9965 97.5864 45.7314 97.709 45.3933C97.8349 45.0519 97.8979 44.6592 97.8979 44.215C97.8979 43.7742 97.8366 43.3864 97.714 43.0517C97.5913 42.7169 97.4107 42.4551 97.1721 42.2662C96.9334 42.0772 96.6401 41.9828 96.2921 41.9828C95.9474 41.9828 95.6557 42.0739 95.4171 42.2562C95.1818 42.4385 95.0011 42.697 94.8752 43.0318C94.7492 43.3665 94.6863 43.7609 94.6863 44.215ZM110.276 40.7797C110.236 40.3786 110.065 40.0671 109.764 39.845C109.462 39.6229 109.053 39.5119 108.536 39.5119C108.185 39.5119 107.888 39.5616 107.646 39.661C107.404 39.7572 107.218 39.8914 107.089 40.0637C106.963 40.2361 106.9 40.4316 106.9 40.6504C106.894 40.8327 106.932 40.9918 107.015 41.1277C107.101 41.2636 107.218 41.3812 107.368 41.4806C107.517 41.5768 107.689 41.6613 107.885 41.7342C108.08 41.8038 108.289 41.8635 108.511 41.9132L109.426 42.1319C109.87 42.2314 110.278 42.3639 110.649 42.5297C111.02 42.6954 111.342 42.8992 111.613 43.1412C111.885 43.3831 112.096 43.6681 112.245 43.9963C112.397 44.3244 112.475 44.7006 112.478 45.1248C112.475 45.7479 112.316 46.2882 112.001 46.7456C111.69 47.1996 111.239 47.5526 110.649 47.8045C110.062 48.0531 109.355 48.1774 108.526 48.1774C107.704 48.1774 106.988 48.0514 106.378 47.7995C105.772 47.5476 105.298 47.1748 104.956 46.6809C104.618 46.1838 104.441 45.569 104.424 44.8365H106.507C106.531 45.1779 106.628 45.4629 106.801 45.6916C106.976 45.917 107.21 46.0877 107.502 46.2037C107.797 46.3163 108.13 46.3727 108.501 46.3727C108.866 46.3727 109.182 46.3197 109.451 46.2136C109.722 46.1075 109.933 45.96 110.082 45.7711C110.231 45.5822 110.306 45.3651 110.306 45.1199C110.306 44.8912 110.238 44.6989 110.102 44.5431C109.969 44.3874 109.774 44.2548 109.515 44.1454C109.26 44.036 108.947 43.9366 108.576 43.8471L107.467 43.5687C106.609 43.3599 105.931 43.0334 105.434 42.5893C104.936 42.1452 104.69 41.5469 104.693 40.7946C104.69 40.1781 104.854 39.6395 105.185 39.1788C105.52 38.7181 105.979 38.3585 106.562 38.1C107.145 37.8414 107.808 37.7122 108.551 37.7122C109.306 37.7122 109.966 37.8414 110.529 38.1C111.096 38.3585 111.537 38.7181 111.852 39.1788C112.167 39.6395 112.329 40.1731 112.339 40.7797H110.276ZM117.948 40.3968V41.9877H113.35V40.3968H117.948ZM114.394 38.5673H116.512V45.6866C116.512 45.8822 116.541 46.0346 116.601 46.144C116.661 46.2501 116.744 46.3246 116.85 46.3677C116.959 46.4108 117.085 46.4324 117.227 46.4324C117.327 46.4324 117.426 46.4241 117.526 46.4075C117.625 46.3876 117.701 46.3727 117.754 46.3627L118.088 47.9387C117.981 47.9719 117.832 48.01 117.64 48.0531C117.448 48.0995 117.214 48.1277 116.939 48.1376C116.429 48.1575 115.981 48.0895 115.597 47.9338C115.216 47.778 114.919 47.536 114.707 47.2079C114.495 46.8798 114.39 46.4655 114.394 45.965V38.5673ZM122.696 48.1824C121.924 48.1824 121.256 48.0183 120.693 47.6902C120.133 47.3587 119.7 46.898 119.395 46.3081C119.09 45.7148 118.938 45.027 118.938 44.2449C118.938 43.456 119.09 42.7666 119.395 42.1767C119.7 41.5834 120.133 41.1227 120.693 40.7946C121.256 40.4631 121.924 40.2974 122.696 40.2974C123.468 40.2974 124.135 40.4631 124.695 40.7946C125.258 41.1227 125.692 41.5834 125.997 42.1767C126.302 42.7666 126.455 43.456 126.455 44.2449C126.455 45.027 126.302 45.7148 125.997 46.3081C125.692 46.898 125.258 47.3587 124.695 47.6902C124.135 48.0183 123.468 48.1824 122.696 48.1824ZM122.706 46.5417C123.057 46.5417 123.351 46.4423 123.586 46.2434C123.821 46.0413 123.999 45.7662 124.118 45.4181C124.241 45.0701 124.302 44.6741 124.302 44.2299C124.302 43.7858 124.241 43.3897 124.118 43.0417C123.999 42.6937 123.821 42.4186 123.586 42.2164C123.351 42.0143 123.057 41.9132 122.706 41.9132C122.352 41.9132 122.053 42.0143 121.811 42.2164C121.573 42.4186 121.392 42.6937 121.269 43.0417C121.15 43.3897 121.09 43.7858 121.09 44.2299C121.09 44.6741 121.15 45.0701 121.269 45.4181C121.392 45.7662 121.573 46.0413 121.811 46.2434C122.053 46.4423 122.352 46.5417 122.706 46.5417ZM127.832 48.0332V40.3968H129.885V41.7292H129.965C130.104 41.2553 130.338 40.8973 130.666 40.6554C130.994 40.4101 131.372 40.2875 131.799 40.2875C131.905 40.2875 132.02 40.2941 132.142 40.3074C132.265 40.3206 132.373 40.3388 132.465 40.362V42.2413C132.366 42.2115 132.228 42.185 132.053 42.1618C131.877 42.1386 131.716 42.127 131.571 42.127C131.259 42.127 130.981 42.1949 130.735 42.3308C130.493 42.4634 130.301 42.649 130.159 42.8876C130.019 43.1262 129.95 43.4013 129.95 43.7129V48.0332H127.832ZM136.685 48.1824C135.9 48.1824 135.223 48.0233 134.657 47.7051C134.093 47.3836 133.659 46.9295 133.354 46.3429C133.049 45.7529 132.897 45.0552 132.897 44.2498C132.897 43.4643 133.049 42.7749 133.354 42.1816C133.659 41.5884 134.088 41.126 134.642 40.7946C135.199 40.4631 135.851 40.2974 136.601 40.2974C137.104 40.2974 137.573 40.3786 138.007 40.541C138.445 40.7001 138.826 40.9404 139.151 41.2619C139.479 41.5834 139.734 41.9877 139.917 42.475C140.099 42.9589 140.19 43.5256 140.19 44.1752V44.7569H133.742V43.4444H138.196C138.196 43.1395 138.13 42.8694 137.998 42.6341C137.865 42.3987 137.681 42.2148 137.446 42.0822C137.214 41.9463 136.944 41.8784 136.635 41.8784C136.314 41.8784 136.029 41.9529 135.78 42.1021C135.535 42.2479 135.343 42.4451 135.203 42.6937C135.064 42.939 134.993 43.2124 134.99 43.514V44.7619C134.99 45.1397 135.059 45.4662 135.199 45.7413C135.341 46.0164 135.542 46.2285 135.8 46.3777C136.059 46.5268 136.365 46.6014 136.72 46.6014C136.955 46.6014 137.171 46.5682 137.366 46.502C137.562 46.4357 137.729 46.3362 137.868 46.2037C138.007 46.0711 138.114 45.9087 138.186 45.7164L140.145 45.8457C140.046 46.3163 139.842 46.7273 139.534 47.0787C139.229 47.4267 138.834 47.6984 138.351 47.894C137.87 48.0862 137.315 48.1824 136.685 48.1824Z" fill="#4B4B4B"/>
<g filter="url(#filter1_d_1_2482)">
<rect x="204.5" y="0.84668" width="192" height="68.5781" rx="16" fill="white"/>
<rect x="205.5" y="1.84668" width="190" height="66.5781" rx="15" stroke="#E5E5E5" stroke-width="2"/>
</g>
<g clip-path="url(#clip1_1_2482)">
<path fill-rule="evenodd" clip-rule="evenodd" d="M239.047 18.8168C239.047 18.6103 239.064 18.417 239.095 18.2377L251.96 31.8195L239.075 45.423C239.057 45.283 239.047 45.1353 239.047 44.98V18.8168ZM240.465 47.0894C240.939 47.1659 241.5 47.0507 242.1 46.7153L257.767 37.95L253.445 33.3867L240.465 47.0894ZM254.929 31.8195L259.709 36.8649L265.531 33.6078C267.21 32.6674 267.21 31.1295 265.531 30.1913L259.61 26.8785L254.929 31.8195ZM257.669 25.7927L242.1 17.0825C241.617 16.8116 241.16 16.6838 240.754 16.6838C240.701 16.6838 240.649 16.686 240.598 16.6902L253.445 30.2523L257.669 25.7927Z" fill="#4B4B4B"/>
</g>
<path d="M288.295 21.4326C288.241 21.2425 288.164 21.0745 288.065 20.9287C287.966 20.7803 287.845 20.6553 287.702 20.5537C287.561 20.4495 287.399 20.3701 287.217 20.3154C287.037 20.2607 286.838 20.2334 286.62 20.2334C286.211 20.2334 285.851 20.335 285.541 20.5381C285.234 20.7412 284.995 21.0368 284.823 21.4248C284.651 21.8102 284.565 22.2816 284.565 22.8389C284.565 23.3962 284.649 23.8701 284.819 24.2607C284.988 24.6514 285.228 24.9495 285.537 25.1553C285.847 25.3584 286.213 25.46 286.635 25.46C287.018 25.46 287.345 25.3923 287.616 25.2568C287.889 25.1188 288.097 24.9248 288.241 24.6748C288.386 24.4248 288.459 24.1292 288.459 23.7881L288.803 23.8389H286.741V22.5654H290.088V23.5732C290.088 24.2764 289.94 24.8805 289.643 25.3857C289.346 25.8883 288.937 26.2764 288.416 26.5498C287.896 26.8206 287.299 26.9561 286.627 26.9561C285.877 26.9561 285.218 26.7907 284.651 26.46C284.083 26.1266 283.64 25.654 283.323 25.042C283.008 24.4274 282.85 23.6982 282.85 22.8545C282.85 22.2061 282.944 21.6279 283.131 21.1201C283.321 20.6097 283.587 20.1774 283.928 19.8232C284.269 19.4691 284.666 19.1995 285.12 19.0146C285.573 18.8298 286.064 18.7373 286.592 18.7373C287.045 18.7373 287.467 18.8037 287.858 18.9365C288.248 19.0667 288.595 19.2516 288.897 19.4912C289.202 19.7308 289.45 20.016 289.643 20.3467C289.836 20.6748 289.959 21.0368 290.014 21.4326H288.295ZM294.062 26.9639C293.445 26.9639 292.913 26.8389 292.468 26.5889C292.025 26.3363 291.684 25.9795 291.445 25.5186C291.205 25.055 291.085 24.5068 291.085 23.874C291.085 23.2568 291.205 22.7152 291.445 22.249C291.684 21.7829 292.022 21.4196 292.456 21.1592C292.894 20.8988 293.407 20.7686 293.995 20.7686C294.391 20.7686 294.76 20.8324 295.101 20.96C295.445 21.085 295.744 21.2738 295.999 21.5264C296.257 21.779 296.458 22.0967 296.601 22.4795C296.744 22.8597 296.816 23.305 296.816 23.8154V24.2725H291.749V23.2412H295.249C295.249 23.0016 295.197 22.7894 295.093 22.6045C294.989 22.4196 294.844 22.2751 294.66 22.1709C294.477 22.0641 294.265 22.0107 294.023 22.0107C293.77 22.0107 293.546 22.0693 293.351 22.1865C293.158 22.3011 293.007 22.4561 292.898 22.6514C292.788 22.8441 292.732 23.0589 292.73 23.2959V24.2764C292.73 24.5732 292.785 24.8298 292.894 25.0459C293.006 25.262 293.163 25.4287 293.367 25.5459C293.57 25.6631 293.811 25.7217 294.089 25.7217C294.274 25.7217 294.443 25.6956 294.597 25.6436C294.751 25.5915 294.882 25.5133 294.992 25.4092C295.101 25.305 295.184 25.1774 295.242 25.0264L296.781 25.1279C296.703 25.4977 296.542 25.8206 296.3 26.0967C296.061 26.3701 295.751 26.5837 295.37 26.7373C294.993 26.8883 294.557 26.9639 294.062 26.9639ZM301.093 20.8467V22.0967H297.48V20.8467H301.093ZM298.3 19.4092H299.964V25.0029C299.964 25.1566 299.988 25.2764 300.035 25.3623C300.081 25.4456 300.147 25.5042 300.23 25.5381C300.316 25.5719 300.415 25.5889 300.527 25.5889C300.605 25.5889 300.683 25.5824 300.761 25.5693C300.839 25.5537 300.899 25.542 300.941 25.5342L301.203 26.7725C301.119 26.7985 301.002 26.8285 300.851 26.8623C300.7 26.8988 300.516 26.9209 300.3 26.9287C299.899 26.9443 299.548 26.891 299.245 26.7686C298.946 26.6462 298.713 26.4561 298.546 26.1982C298.38 25.9404 298.298 25.6149 298.3 25.2217V19.4092ZM304.723 26.8467V20.8467H306.387V26.8467H304.723ZM305.559 20.0732C305.312 20.0732 305.099 19.9912 304.922 19.8271C304.748 19.6605 304.661 19.4613 304.661 19.2295C304.661 19.0003 304.748 18.8037 304.922 18.6396C305.099 18.473 305.312 18.3896 305.559 18.3896C305.806 18.3896 306.017 18.473 306.192 18.6396C306.369 18.8037 306.457 19.0003 306.457 19.2295C306.457 19.4613 306.369 19.6605 306.192 19.8271C306.017 19.9912 305.806 20.0732 305.559 20.0732ZM310.911 20.8467V22.0967H307.298V20.8467H310.911ZM308.119 19.4092H309.783V25.0029C309.783 25.1566 309.806 25.2764 309.853 25.3623C309.9 25.4456 309.965 25.5042 310.048 25.5381C310.134 25.5719 310.233 25.5889 310.345 25.5889C310.423 25.5889 310.501 25.5824 310.579 25.5693C310.658 25.5537 310.717 25.542 310.759 25.5342L311.021 26.7725C310.938 26.7985 310.82 26.8285 310.669 26.8623C310.518 26.8988 310.335 26.9209 310.119 26.9287C309.717 26.9443 309.366 26.891 309.064 26.7686C308.764 26.6462 308.531 26.4561 308.365 26.1982C308.198 25.9404 308.116 25.6149 308.119 25.2217V19.4092ZM317.252 26.9639C316.646 26.9639 316.121 26.835 315.678 26.5771C315.238 26.3167 314.898 25.9548 314.659 25.4912C314.419 25.0251 314.299 24.4847 314.299 23.8701C314.299 23.2503 314.419 22.7087 314.659 22.2451C314.898 21.779 315.238 21.417 315.678 21.1592C316.121 20.8988 316.646 20.7686 317.252 20.7686C317.859 20.7686 318.383 20.8988 318.823 21.1592C319.265 21.417 319.606 21.779 319.846 22.2451C320.086 22.7087 320.205 23.2503 320.205 23.8701C320.205 24.4847 320.086 25.0251 319.846 25.4912C319.606 25.9548 319.265 26.3167 318.823 26.5771C318.383 26.835 317.859 26.9639 317.252 26.9639ZM317.26 25.6748C317.536 25.6748 317.767 25.5967 317.952 25.4404C318.136 25.2816 318.276 25.0654 318.37 24.792C318.466 24.5186 318.514 24.2074 318.514 23.8584C318.514 23.5094 318.466 23.1982 318.37 22.9248C318.276 22.6514 318.136 22.4352 317.952 22.2764C317.767 22.1175 317.536 22.0381 317.26 22.0381C316.981 22.0381 316.747 22.1175 316.557 22.2764C316.37 22.4352 316.228 22.6514 316.131 22.9248C316.037 23.1982 315.991 23.5094 315.991 23.8584C315.991 24.2074 316.037 24.5186 316.131 24.792C316.228 25.0654 316.37 25.2816 316.557 25.4404C316.747 25.5967 316.981 25.6748 317.26 25.6748ZM322.952 23.3779V26.8467H321.287V20.8467H322.873V21.9053H322.944C323.077 21.5563 323.299 21.2803 323.612 21.0771C323.924 20.8714 324.303 20.7686 324.748 20.7686C325.165 20.7686 325.528 20.8597 325.838 21.042C326.148 21.2243 326.389 21.4847 326.561 21.8232C326.733 22.1592 326.819 22.5602 326.819 23.0264V26.8467H325.155V23.3232C325.157 22.9561 325.064 22.6696 324.873 22.4639C324.683 22.2555 324.422 22.1514 324.088 22.1514C323.864 22.1514 323.666 22.1995 323.495 22.2959C323.325 22.3923 323.192 22.5329 323.096 22.7178C323.002 22.9001 322.954 23.1201 322.952 23.3779Z" fill="#4B4B4B"/>
<path d="M290.229 41.1436C290.159 40.9016 290.061 40.6878 289.935 40.5022C289.809 40.3133 289.655 40.1542 289.473 40.0249C289.294 39.8924 289.088 39.7913 288.856 39.7217C288.628 39.6521 288.374 39.6173 288.096 39.6173C287.575 39.6173 287.118 39.7465 286.724 40.0051C286.332 40.2636 286.028 40.6398 285.809 41.1336C285.59 41.6241 285.481 42.224 285.481 42.9333C285.481 43.6426 285.588 44.2458 285.804 44.743C286.019 45.2401 286.324 45.6196 286.719 45.8815C287.113 46.14 287.579 46.2693 288.116 46.2693C288.603 46.2693 289.019 46.1831 289.363 46.0107C289.711 45.8351 289.977 45.5882 290.159 45.27C290.345 44.9518 290.437 44.5756 290.437 44.1414L290.875 44.2061H288.25V42.5853H292.51V43.868C292.51 44.7629 292.322 45.5318 291.944 46.1748C291.566 46.8145 291.046 47.3083 290.383 47.6563C289.72 48.001 288.961 48.1734 288.106 48.1734C287.151 48.1734 286.313 47.9629 285.59 47.542C284.867 47.1177 284.304 46.5162 283.9 45.7373C283.499 44.9551 283.298 44.0271 283.298 42.9532C283.298 42.1279 283.417 41.3921 283.656 40.7458C283.898 40.0962 284.236 39.546 284.67 39.0953C285.104 38.6445 285.61 38.3015 286.187 38.0661C286.763 37.8308 287.388 37.7132 288.061 37.7132C288.638 37.7132 289.175 37.7977 289.672 37.9667C290.169 38.1324 290.61 38.3677 290.994 38.6727C291.382 38.9776 291.698 39.3405 291.944 39.7615C292.189 40.1791 292.346 40.6398 292.416 41.1436H290.229ZM297.538 48.1833C296.766 48.1833 296.098 48.0193 295.534 47.6911C294.974 47.3597 294.542 46.899 294.237 46.309C293.932 45.7158 293.779 45.028 293.779 44.2458C293.779 43.457 293.932 42.7676 294.237 42.1776C294.542 41.5844 294.974 41.1237 295.534 40.7955C296.098 40.4641 296.766 40.2984 297.538 40.2984C298.31 40.2984 298.976 40.4641 299.537 40.7955C300.1 41.1237 300.534 41.5844 300.839 42.1776C301.144 42.7676 301.297 43.457 301.297 44.2458C301.297 45.028 301.144 45.7158 300.839 46.309C300.534 46.899 300.1 47.3597 299.537 47.6911C298.976 48.0193 298.31 48.1833 297.538 48.1833ZM297.548 46.5427C297.899 46.5427 298.193 46.4433 298.428 46.2444C298.663 46.0422 298.841 45.7671 298.96 45.4191C299.083 45.0711 299.144 44.675 299.144 44.2309C299.144 43.7868 299.083 43.3907 298.96 43.0427C298.841 42.6947 298.663 42.4196 298.428 42.2174C298.193 42.0152 297.899 41.9142 297.548 41.9142C297.193 41.9142 296.895 42.0152 296.653 42.2174C296.414 42.4196 296.234 42.6947 296.111 43.0427C295.992 43.3907 295.932 43.7868 295.932 44.2309C295.932 44.675 295.992 45.0711 296.111 45.4191C296.234 45.7671 296.414 46.0422 296.653 46.2444C296.895 46.4433 297.193 46.5427 297.548 46.5427ZM306.124 48.1833C305.352 48.1833 304.684 48.0193 304.12 47.6911C303.56 47.3597 303.128 46.899 302.823 46.309C302.518 45.7158 302.365 45.028 302.365 44.2458C302.365 43.457 302.518 42.7676 302.823 42.1776C303.128 41.5844 303.56 41.1237 304.12 40.7955C304.684 40.4641 305.352 40.2984 306.124 40.2984C306.896 40.2984 307.562 40.4641 308.123 40.7955C308.686 41.1237 309.12 41.5844 309.425 42.1776C309.73 42.7676 309.882 43.457 309.882 44.2458C309.882 45.028 309.73 45.7158 309.425 46.309C309.12 46.899 308.686 47.3597 308.123 47.6911C307.562 48.0193 306.896 48.1833 306.124 48.1833ZM306.134 46.5427C306.485 46.5427 306.779 46.4433 307.014 46.2444C307.249 46.0422 307.427 45.7671 307.546 45.4191C307.668 45.0711 307.73 44.675 307.73 44.2309C307.73 43.7868 307.668 43.3907 307.546 43.0427C307.427 42.6947 307.249 42.4196 307.014 42.2174C306.779 42.0152 306.485 41.9142 306.134 41.9142C305.779 41.9142 305.481 42.0152 305.239 42.2174C305 42.4196 304.82 42.6947 304.697 43.0427C304.578 43.3907 304.518 43.7868 304.518 44.2309C304.518 44.675 304.578 45.0711 304.697 45.4191C304.82 45.7671 305 46.0422 305.239 46.2444C305.481 46.4433 305.779 46.5427 306.134 46.5427ZM314.7 51.0569C314.014 51.0569 313.426 50.9624 312.935 50.7735C312.448 50.5879 312.06 50.3344 311.772 50.0129C311.483 49.6914 311.296 49.3301 311.21 48.9291L313.169 48.6656C313.228 48.818 313.323 48.9606 313.452 49.0931C313.581 49.2257 313.752 49.3318 313.964 49.4113C314.18 49.4942 314.441 49.5356 314.75 49.5356C315.21 49.5356 315.59 49.4229 315.888 49.1975C316.19 48.9755 316.341 48.6026 316.341 48.0789V46.6819H316.251C316.158 46.894 316.019 47.0945 315.833 47.2835C315.648 47.4724 315.409 47.6265 315.118 47.7458C314.826 47.8651 314.478 47.9248 314.074 47.9248C313.5 47.9248 312.978 47.7922 312.507 47.5271C312.04 47.2586 311.667 46.8493 311.389 46.2991C311.114 45.7456 310.976 45.0463 310.976 44.2011C310.976 43.336 311.117 42.6135 311.399 42.0335C311.681 41.4535 312.055 41.0193 312.522 40.7309C312.993 40.4426 313.508 40.2984 314.069 40.2984C314.496 40.2984 314.854 40.3713 315.142 40.5171C315.431 40.6597 315.663 40.8386 315.838 41.0541C316.017 41.2662 316.155 41.475 316.251 41.6805H316.331V40.3978H318.434V48.1088C318.434 48.7584 318.275 49.3019 317.956 49.7394C317.638 50.1769 317.197 50.5051 316.634 50.7238C316.074 50.9459 315.429 51.0569 314.7 51.0569ZM314.745 46.3339C315.086 46.3339 315.374 46.2494 315.61 46.0803C315.848 45.908 316.031 45.6627 316.157 45.3445C316.286 45.0231 316.351 44.6386 316.351 44.1911C316.351 43.7437 316.288 43.3559 316.162 43.0278C316.036 42.6963 315.853 42.4395 315.615 42.2572C315.376 42.0749 315.086 41.9838 314.745 41.9838C314.397 41.9838 314.103 42.0782 313.865 42.2671C313.626 42.4527 313.445 42.7113 313.323 43.0427C313.2 43.3741 313.139 43.757 313.139 44.1911C313.139 44.632 313.2 45.0131 313.323 45.3346C313.449 45.6528 313.629 45.8997 313.865 46.0754C314.103 46.2477 314.397 46.3339 314.745 46.3339ZM322.237 37.8524V48.0342H320.119V37.8524H322.237ZM327.414 48.1833C326.628 48.1833 325.952 48.0242 325.385 47.7061C324.822 47.3846 324.387 46.9305 324.083 46.3438C323.778 45.7539 323.625 45.0562 323.625 44.2508C323.625 43.4653 323.778 42.7759 324.083 42.1826C324.387 41.5893 324.817 41.127 325.37 40.7955C325.927 40.4641 326.58 40.2984 327.329 40.2984C327.833 40.2984 328.302 40.3796 328.736 40.542C329.173 40.7011 329.555 40.9414 329.879 41.2629C330.208 41.5844 330.463 41.9887 330.645 42.4759C330.827 42.9598 330.919 43.5266 330.919 44.1762V44.7579H324.47V43.4454H328.925C328.925 43.1405 328.859 42.8704 328.726 42.635C328.593 42.3997 328.41 42.2158 328.174 42.0832C327.942 41.9473 327.672 41.8794 327.364 41.8794C327.042 41.8794 326.757 41.9539 326.509 42.1031C326.263 42.2489 326.071 42.4461 325.932 42.6947C325.793 42.94 325.722 43.2134 325.718 43.515V44.7629C325.718 45.1407 325.788 45.4672 325.927 45.7423C326.07 46.0174 326.27 46.2295 326.529 46.3786C326.787 46.5278 327.094 46.6024 327.448 46.6024C327.684 46.6024 327.899 46.5692 328.095 46.5029C328.29 46.4366 328.458 46.3372 328.597 46.2046C328.736 46.0721 328.842 45.9097 328.915 45.7174L330.874 45.8467C330.774 46.3173 330.571 46.7283 330.262 47.0796C329.957 47.4276 329.563 47.6994 329.079 47.895C328.598 48.0872 328.043 48.1833 327.414 48.1833ZM335.581 48.0342V37.8524H339.598C340.37 37.8524 341.028 37.9999 341.571 38.2948C342.115 38.5865 342.529 38.9925 342.814 39.5129C343.103 40.0299 343.247 40.6265 343.247 41.3026C343.247 41.9788 343.101 42.5754 342.809 43.0924C342.518 43.6095 342.095 44.0122 341.542 44.3005C340.991 44.5889 340.325 44.733 339.543 44.733H336.983V43.0079H339.195C339.609 43.0079 339.951 42.9366 340.219 42.7941C340.491 42.6483 340.693 42.4478 340.826 42.1926C340.962 41.934 341.029 41.6374 341.029 41.3026C341.029 40.9646 340.962 40.6696 340.826 40.4177C340.693 40.1625 340.491 39.9653 340.219 39.8261C339.947 39.6836 339.603 39.6123 339.185 39.6123H337.733V48.0342H335.581ZM346.723 37.8524V48.0342H344.605V37.8524H346.723ZM350.597 48.1784C350.11 48.1784 349.676 48.0938 349.295 47.9248C348.914 47.7525 348.612 47.4989 348.39 47.1642C348.171 46.8261 348.062 46.4052 348.062 45.9014C348.062 45.4771 348.14 45.1208 348.295 44.8325C348.451 44.5441 348.663 44.3121 348.932 44.1365C349.2 43.9608 349.505 43.8282 349.847 43.7387C350.191 43.6492 350.553 43.5863 350.93 43.5498C351.375 43.5034 351.732 43.4603 352.004 43.4205C352.276 43.3775 352.473 43.3145 352.596 43.2316C352.719 43.1488 352.78 43.0261 352.78 42.8637V42.8339C352.78 42.519 352.68 42.2754 352.482 42.1031C352.286 41.9307 352.008 41.8445 351.646 41.8445C351.265 41.8445 350.962 41.9291 350.737 42.0981C350.511 42.2638 350.362 42.4726 350.289 42.7245L348.33 42.5654C348.43 42.1014 348.625 41.7004 348.917 41.3623C349.209 41.0209 349.585 40.7591 350.045 40.5768C350.509 40.3912 351.046 40.2984 351.656 40.2984C352.081 40.2984 352.487 40.3481 352.874 40.4475C353.265 40.547 353.612 40.7011 353.913 40.9099C354.218 41.1187 354.459 41.3872 354.634 41.7153C354.81 42.0401 354.898 42.4295 354.898 42.8836V48.0342H352.889V46.9752H352.83C352.707 47.2139 352.543 47.4243 352.337 47.6066C352.132 47.7856 351.885 47.9265 351.597 48.0292C351.308 48.1286 350.975 48.1784 350.597 48.1784ZM351.204 46.7167C351.515 46.7167 351.79 46.6554 352.029 46.5328C352.268 46.4068 352.455 46.2378 352.591 46.0257C352.727 45.8135 352.795 45.5732 352.795 45.3048V44.4944C352.728 44.5375 352.637 44.5773 352.521 44.6137C352.409 44.6469 352.281 44.6784 352.139 44.7082C351.996 44.7347 351.853 44.7596 351.711 44.7828C351.568 44.8026 351.439 44.8209 351.323 44.8374C351.075 44.8739 350.857 44.9319 350.672 45.0115C350.486 45.091 350.342 45.1987 350.239 45.3346C350.137 45.4672 350.085 45.6329 350.085 45.8318C350.085 46.1201 350.19 46.3405 350.398 46.493C350.611 46.6421 350.879 46.7167 351.204 46.7167ZM357.575 50.8978C357.306 50.8978 357.055 50.8763 356.819 50.8332C356.587 50.7934 356.395 50.742 356.243 50.6791L356.72 49.0981C356.968 49.1743 357.192 49.2158 357.391 49.2224C357.593 49.229 357.767 49.1826 357.913 49.0832C358.062 48.9838 358.183 48.8147 358.276 48.5761L358.4 48.2529L355.661 40.3978H357.888L359.469 46.0058H359.549L361.145 40.3978H363.387L360.419 48.8595C360.276 49.2704 360.082 49.6284 359.837 49.9333C359.595 50.2416 359.288 50.4785 358.917 50.6443C358.546 50.8133 358.099 50.8978 357.575 50.8978Z" fill="#4B4B4B"/>
<defs>
<filter id="filter0_d_1_2482" x="0.5" y="0.84668" width="192" height="70.5781" filterUnits="userSpaceOnUse" color-interpolation-filters="sRGB">
<feFlood flood-opacity="0" result="BackgroundImageFix"/>
<feColorMatrix in="SourceAlpha" type="matrix" values="0 0 0 0 0 0 0 0 0 0 0 0 0 0 0 0 0 0 127 0" result="hardAlpha"/>
<feOffset dy="2"/>
<feComposite in2="hardAlpha" operator="out"/>
<feColorMatrix type="matrix" values="0 0 0 0 0.898039 0 0 0 0 0.898039 0 0 0 0 0.898039 0 0 0 1 0"/>
<feBlend mode="normal" in2="BackgroundImageFix" result="effect1_dropShadow_1_2482"/>
<feBlend mode="normal" in="SourceGraphic" in2="effect1_dropShadow_1_2482" result="shape"/>
</filter>
<filter id="filter1_d_1_2482" x="204.5" y="0.84668" width="192" height="70.5781" filterUnits="userSpaceOnUse" color-interpolation-filters="sRGB">
<feFlood flood-opacity="0" result="BackgroundImageFix"/>
<feColorMatrix in="SourceAlpha" type="matrix" values="0 0 0 0 0 0 0 0 0 0 0 0 0 0 0 0 0 0 127 0" result="hardAlpha"/>
<feOffset dy="2"/>
<feComposite in2="hardAlpha" operator="out"/>
<feColorMatrix type="matrix" values="0 0 0 0 0.898039 0 0 0 0 0.898039 0 0 0 0 0.898039 0 0 0 1 0"/>
<feBlend mode="normal" in2="BackgroundImageFix" result="effect1_dropShadow_1_2482"/>
<feBlend mode="normal" in="SourceGraphic" in2="effect1_dropShadow_1_2482" result="shape"/>
</filter>
<clipPath id="clip0_1_2482">
<rect width="34" height="34" fill="white" transform="translate(25.6875 14.8457)"/>
</clipPath>
<clipPath id="clip1_1_2482">
<rect width="34" height="34" fill="white" transform="translate(235.547 14.8467)"/>
</clipPath>
</defs>
</svg>
