<svg width="34" height="33" viewBox="0 0 34 33" fill="none" xmlns="http://www.w3.org/2000/svg">
<path fill-rule="evenodd" clip-rule="evenodd" d="M5.97902 15.8055C5.97902 9.59074 11.017 4.55273 17.2317 4.55273C23.4464 4.55273 28.4844 9.59074 28.4844 15.8055V16.1465C30.5157 17.1384 31.915 19.2244 31.915 21.6372C31.915 25.0097 29.1809 27.7438 25.8084 27.7438H8.51767C5.14505 27.7438 2.41101 25.0097 2.41101 21.6372C2.41101 19.1703 3.87367 17.0451 5.97902 16.0815V15.8055Z" fill="#9069CD"/>
<path fill-rule="evenodd" clip-rule="evenodd" d="M8.52811 21.3667C6.91307 21.0485 5.69495 19.6246 5.69495 17.9162C5.69495 16.1784 6.9554 14.735 8.61196 14.4503C9.25598 10.4341 12.7372 7.36572 16.935 7.36572C21.1328 7.36572 24.614 10.4341 25.2579 14.4505C26.9141 14.7355 28.1742 16.1787 28.1742 17.9162C28.1742 19.6243 26.9565 21.048 25.3418 21.3665C25.0214 25.7297 21.3799 29.1701 16.935 29.1701C12.49 29.1701 8.84858 25.7298 8.52811 21.3667Z" fill="#F3AD6D"/>
<path fill-rule="evenodd" clip-rule="evenodd" d="M14.0745 15.1875C14.0745 14.619 14.5353 14.1582 15.1037 14.1582C15.6721 14.1582 16.1329 14.619 16.1329 15.1875V17.932C16.1329 18.5004 15.6721 18.9612 15.1037 18.9612C14.5353 18.9612 14.0745 18.5004 14.0745 17.932V15.1875Z" fill="#BF8034"/>
<path fill-rule="evenodd" clip-rule="evenodd" d="M17.6426 15.1875C17.6426 14.619 18.1034 14.1582 18.6718 14.1582C19.2402 14.1582 19.701 14.619 19.701 15.1875V17.932C19.701 18.5004 19.2402 18.9612 18.6718 18.9612C18.1034 18.9612 17.6426 18.5004 17.6426 17.932V15.1875Z" fill="#BF8034"/>
<path d="M14.0743 20.5088H19.8528C20.2106 20.5088 20.5007 20.7988 20.5007 21.1567V21.4927C20.5007 23.4462 18.9171 25.0298 16.9636 25.0298C15.0101 25.0298 13.4264 23.4462 13.4264 21.4927V21.1567C13.4264 20.7988 13.7165 20.5088 14.0743 20.5088Z" fill="white"/>
<path fill-rule="evenodd" clip-rule="evenodd" d="M19.5788 7.14643L20.0621 7.71809V9.65218L17.5594 12.246L14.0468 14.0922L10.1393 14.7516H7.90027V13.5648L9.17351 10.949L10.9297 8.68524L14.7494 6.79492H18.0423L19.5788 7.14643Z" fill="#9069CD"/>
<path d="M6.33484 15.1186H9.26945C12.9072 15.0938 18.6972 14.5766 20.5836 7.91912C20.6801 7.52826 20.7729 7.07638 20.862 6.56348" stroke="#9069CD" stroke-width="1.85712"/>
</svg>
